<svg xmlns="http://www.w3.org/2000/svg" viewBox="0 0 30 30" width="100" height="100">
    <path d="M28 15c0-1.864-1.032-3.471-2.545-4.331.462-1.677.055-3.543-1.263-4.862a4.985 4.985 0 0 0-3.536-1.464c-.448 0-.891.082-1.326.202C18.471 3.032 16.864 2 15 2s-3.471 1.032-4.331 2.545a4.996 4.996 0 0 0-1.326-.202c-1.28 0-2.559.488-3.536 1.464-1.318 1.318-1.724 3.184-1.263 4.862C3.032 11.529 2 13.136 2 15s1.032 3.471 2.545 4.331c-.461 1.677-.055 3.543 1.263 4.862a4.985 4.985 0 0 0 3.536 1.464c.448 0 .891-.082 1.326-.202C11.529 26.968 13.136 28 15 28s3.471-1.032 4.331-2.545c.435.12.878.202 1.326.202 1.28 0 2.559-.488 3.536-1.464 1.318-1.318 1.724-3.184 1.263-4.862C26.968 18.471 28 16.864 28 15zm-7.343-8.907c.868 0 1.684.338 2.298.952s.952 1.43.952 2.298c0 .253-.037.499-.093.739A4.957 4.957 0 0 0 23 10h-3V7c0-.279-.038-.548-.082-.814.24-.056.486-.093.739-.093zm-1 5.692c.114-.012.225-.035.343-.035h2.846l-2.013 2.013c-.082.082-.177.146-.266.218a5 5 0 0 0-2.032-.445 4.994 4.994 0 0 0 1.122-1.751zM15 3.75c1.164 0 2.179.62 2.753 1.542a4.873 4.873 0 0 0-.631.516L15 7.929l-2.121-2.121a5.028 5.028 0 0 0-.631-.516A3.239 3.239 0 0 1 15 3.75zM17 15a2 2 0 1 1-3.999.001A2 2 0 0 1 17 15zm-5.25-7.846 2.013 2.013c.082.082.146.177.218.266a5 5 0 0 0-.445 2.032 5.004 5.004 0 0 0-1.751-1.122c-.013-.114-.035-.226-.035-.343V7.154zm-4.705-.109a3.228 3.228 0 0 1 2.298-.952c.253 0 .499.037.739.093A4.957 4.957 0 0 0 10 7v3H7c-.279 0-.548.038-.814.082a3.244 3.244 0 0 1-.093-.739c0-.868.338-1.684.952-2.298zM5.292 17.753C4.37 17.179 3.75 16.164 3.75 15s.62-2.179 1.542-2.753c.157.219.319.435.516.631L7.929 15l-2.121 2.121a4.95 4.95 0 0 0-.516.632zm4.051 6.154a3.228 3.228 0 0 1-2.298-.952 3.228 3.228 0 0 1-.952-2.298c0-.253.037-.499.093-.739.266.044.535.082.814.082h3v3c0 .279.038.548.082.814-.24.056-.486.093-.739.093zm1-5.692c-.114.013-.226.035-.343.035H7.154l2.013-2.013c.082-.082.177-.146.266-.219a5.002 5.002 0 0 0 2.032.446 4.994 4.994 0 0 0-1.122 1.751zm-.911-4.234c-.089-.072-.184-.136-.266-.218L7.154 11.75H10c.117 0 .229.022.343.035.253.661.63 1.26 1.122 1.751-.696 0-1.386.157-2.033.445zM11.75 20c0-.117.022-.229.035-.343a4.985 4.985 0 0 0 1.751-1.122c0 .695.157 1.386.446 2.032-.072.089-.136.184-.219.266l-2.013 2.013V20zM15 26.25a3.242 3.242 0 0 1-2.753-1.542c.219-.157.435-.319.631-.516L15 22.071l2.121 2.121c.196.196.413.359.631.516A3.239 3.239 0 0 1 15 26.25zm3.25-3.404-2.013-2.013c-.082-.082-.146-.177-.218-.266a5 5 0 0 0 .445-2.032c.491.491 1.09.868 1.751 1.122.012.114.035.225.035.343v2.846zm0-12.846c0 .117-.022.229-.035.343a4.985 4.985 0 0 0-1.751 1.122c0-.695-.157-1.386-.445-2.032.072-.089.136-.183.218-.266l2.013-2.013V10zm.286 6.464c.695 0 1.386-.157 2.032-.445.089.072.184.136.266.218l2.013 2.013H20c-.117 0-.229-.022-.343-.035a5.006 5.006 0 0 0-1.121-1.751zm4.419 6.491a3.228 3.228 0 0 1-2.298.952c-.253 0-.499-.037-.739-.093.044-.266.082-.535.082-.814v-3h3c.279 0 .548-.038.814-.082.056.24.093.486.093.739 0 .868-.338 1.684-.952 2.298zm1.753-5.202a4.873 4.873 0 0 0-.516-.631L22.071 15l2.121-2.121c.196-.196.359-.413.516-.631.922.573 1.542 1.588 1.542 2.752s-.62 2.179-1.542 2.753z"/>
</svg>
